<svg width="37" height="41" viewBox="0 0 37 41" fill="none" xmlns="http://www.w3.org/2000/svg">
<path d="M18.5001 30.1094C18.2723 30.1097 18.0467 30.0602 17.8362 29.9636C17.6258 29.867 17.4346 29.7252 17.2737 29.5465L5.71123 16.734C5.38635 16.3735 5.20394 15.8848 5.2041 15.3753C5.20426 14.8658 5.38698 14.3772 5.71209 14.017C6.0372 13.6567 6.47811 13.4542 6.93788 13.4541C7.39766 13.4539 7.83869 13.656 8.16403 14.016L18.5001 25.4695L28.8362 14.016C29.1616 13.656 29.6026 13.4539 30.0624 13.4541C30.5222 13.4542 30.9631 13.6567 31.2882 14.017C31.6133 14.3772 31.796 14.8658 31.7962 15.3753C31.7963 15.8848 31.6139 16.3735 31.289 16.734L19.7265 29.5465C19.5657 29.7252 19.3745 29.867 19.164 29.9636C18.9536 30.0602 18.7279 30.1097 18.5001 30.1094Z" fill="#F5F5F5"/>
</svg>
