<svg width="41" height="37" viewBox="0 0 41 37" fill="none" xmlns="http://www.w3.org/2000/svg">
<path d="M30.1094 18.5C30.1098 18.7278 30.0602 18.9534 29.9636 19.1639C29.867 19.3744 29.7253 19.5655 29.5465 19.7264L16.734 31.2889C16.3735 31.6138 15.8848 31.7962 15.3753 31.796C14.8658 31.7959 14.3773 31.6131 14.017 31.288C13.6568 30.9629 13.4543 30.522 13.4541 30.0622C13.4539 29.6025 13.6561 29.1614 14.0161 28.8361L25.4696 18.5L14.0161 8.16389C13.6561 7.83855 13.4539 7.39752 13.4541 6.93774C13.4543 6.47796 13.6568 6.03706 14.017 5.71195C14.3773 5.38684 14.8658 5.20412 15.3753 5.20396C15.8848 5.2038 16.3735 5.38621 16.734 5.71109L29.5465 17.2736C29.7253 17.4345 29.867 17.6256 29.9636 17.8361C30.0602 18.0466 30.1098 18.2722 30.1094 18.5Z" fill="#F5F5F5"/>
</svg>
