<svg width="40" height="40" viewBox="0 0 40 40" fill="none" xmlns="http://www.w3.org/2000/svg">
<g clip-path="url(#clip0_155_30)">
<path d="M39.2119 35.138V35.218H39.2865C39.3005 35.2182 39.3143 35.2147 39.3265 35.2078C39.3314 35.2044 39.3353 35.1998 39.3379 35.1944C39.3405 35.1891 39.3417 35.1831 39.3415 35.1772C39.3417 35.1714 39.3405 35.1656 39.3379 35.1603C39.3352 35.1551 39.3313 35.1507 39.3265 35.1474C39.3144 35.1402 39.3005 35.1366 39.2865 35.1372H39.2119V35.138ZM39.2873 35.0814C39.3193 35.0794 39.3509 35.0886 39.3769 35.1074C39.3873 35.1159 39.3956 35.1268 39.401 35.1391C39.4065 35.1514 39.409 35.1648 39.4083 35.1782C39.4088 35.1898 39.4068 35.2013 39.4024 35.212C39.3981 35.2228 39.3915 35.2324 39.3831 35.2404C39.3631 35.2578 39.338 35.2683 39.3115 35.2702L39.4115 35.3842H39.3345L39.2425 35.271H39.2127V35.3842H39.1483V35.0816H39.2883L39.2873 35.0814ZM39.2673 35.4886C39.3011 35.4889 39.3345 35.4821 39.3655 35.4686C39.3953 35.4557 39.4225 35.4374 39.4455 35.4144C39.4685 35.3915 39.4869 35.3643 39.4997 35.3344C39.5259 35.271 39.5259 35.1998 39.4997 35.1364C39.4868 35.1066 39.4684 35.0795 39.4455 35.0564C39.4225 35.0334 39.3953 35.0151 39.3655 35.0022C39.3343 34.9894 39.301 34.983 39.2673 34.9834C39.2331 34.9831 39.1991 34.9895 39.1673 35.0022C39.1368 35.0148 39.109 35.0332 39.0855 35.0564C39.0501 35.0927 39.0262 35.1386 39.0167 35.1884C39.0072 35.2382 39.0126 35.2896 39.0321 35.3364C39.0443 35.3664 39.0624 35.3936 39.0855 35.4164C39.109 35.4396 39.1368 35.458 39.1673 35.4706C39.1989 35.4841 39.2329 35.4909 39.2673 35.4906M39.2673 34.9106C39.3552 34.9105 39.4396 34.945 39.5023 35.0066C39.5325 35.0362 39.5566 35.0715 39.5731 35.1104C39.5902 35.1504 39.599 35.1934 39.599 35.2369C39.599 35.2804 39.5902 35.3234 39.5731 35.3634C39.5562 35.4021 39.5322 35.4373 39.5023 35.4672C39.4716 35.4966 39.4359 35.5203 39.3969 35.5372C39.3559 35.5546 39.3118 35.5635 39.2673 35.5632C39.2222 35.5635 39.1776 35.5547 39.1361 35.5372C39.0966 35.5207 39.0606 35.497 39.0299 35.4672C39 35.4362 38.9763 35.3999 38.9601 35.36C38.943 35.32 38.9342 35.277 38.9342 35.2335C38.9342 35.19 38.943 35.147 38.9601 35.107C38.9766 35.0681 39.0007 35.0328 39.0309 35.0032C39.0612 34.9729 39.0973 34.9491 39.1371 34.9332C39.1786 34.9157 39.2232 34.9069 39.2683 34.9072M8.64329 33.742C8.64329 33.165 9.02129 32.691 9.63909 32.691C10.2295 32.691 10.6279 33.1446 10.6279 33.742C10.6279 34.3394 10.2295 34.793 9.63909 34.793C9.02129 34.793 8.64329 34.319 8.64329 33.742ZM11.3009 33.742V32.1H10.5871V32.5C10.3607 32.2044 10.0173 32.019 9.55029 32.019C8.63029 32.019 7.90829 32.7406 7.90829 33.7428C7.90829 34.745 8.62989 35.4666 9.55029 35.4666C10.0171 35.4666 10.3607 35.281 10.5871 34.9856V35.3842H11.3001V33.742H11.3009ZM35.4193 33.742C35.4193 33.165 35.7973 32.691 36.4153 32.691C37.0063 32.691 37.4041 33.1446 37.4041 33.742C37.4041 34.3394 37.0063 34.793 36.4153 34.793C35.7975 34.793 35.4193 34.319 35.4193 33.742ZM38.0777 33.742V30.782H37.3633V32.5C37.1369 32.2044 36.7935 32.019 36.3265 32.019C35.4065 32.019 34.6845 32.7406 34.6845 33.7428C34.6845 34.745 35.4061 35.4666 36.3265 35.4666C36.7935 35.4666 37.1369 35.281 37.3633 34.9856V35.3842H38.0777V33.742ZM20.1601 32.6572C20.6201 32.6572 20.9155 32.9456 20.9909 33.4534H19.2877C19.3639 32.9794 19.6517 32.6572 20.1603 32.6572M20.1745 32.0172C19.2125 32.0172 18.5395 32.7172 18.5395 33.741C18.5395 34.7848 19.2395 35.4648 20.2223 35.4648C20.7167 35.4648 21.1695 35.3414 21.5679 35.0048L21.2181 34.4758C20.9429 34.6958 20.5925 34.8192 20.2631 34.8192C19.8031 34.8192 19.3843 34.6062 19.2813 34.0152H21.7187C21.7257 33.9264 21.7329 33.8368 21.7329 33.7408C21.7257 32.7174 21.0929 32.017 20.1741 32.017M28.7921 33.7408C28.7921 33.1638 29.1701 32.6898 29.7879 32.6898C30.3783 32.6898 30.7767 33.1434 30.7767 33.7408C30.7767 34.3382 30.3783 34.7918 29.7879 34.7918C29.1701 34.7918 28.7919 34.3178 28.7919 33.7408M31.4495 33.7408V32.1H30.7361V32.5C30.5089 32.2044 30.1663 32.019 29.6993 32.019C28.7793 32.019 28.0573 32.7406 28.0573 33.7428C28.0573 34.745 28.7789 35.4666 29.6993 35.4666C30.1663 35.4666 30.5089 35.281 30.7361 34.9856V35.3842H31.4497V33.742L31.4495 33.7408ZM24.7611 33.7408C24.7611 34.7366 25.4543 35.4646 26.5123 35.4646C27.0067 35.4646 27.3361 35.3546 27.6923 35.0732L27.3495 34.4962C27.0815 34.6888 26.8001 34.7918 26.4895 34.7918C25.9197 34.7848 25.5007 34.3728 25.5007 33.7408C25.5007 33.1088 25.9197 32.697 26.4895 32.6898C26.7993 32.6898 27.0807 32.7928 27.3495 32.9854L27.6923 32.4084C27.3355 32.127 27.0061 32.017 26.5123 32.017C25.4543 32.017 24.7611 32.7448 24.7611 33.7408ZM33.9631 32.017C33.5513 32.017 33.2831 32.2096 33.0977 32.498V32.1H32.3903V35.3824H33.1049V33.5424C33.1049 32.9992 33.3383 32.6974 33.8049 32.6974C33.9577 32.6952 34.1094 32.7233 34.2513 32.78L34.4713 32.1072C34.3133 32.045 34.1073 32.0176 33.9627 32.0176M14.8299 32.361C14.4865 32.1346 14.0133 32.0176 13.4913 32.0176C12.6597 32.0176 12.1243 32.4162 12.1243 33.0684C12.1243 33.6036 12.5229 33.9338 13.2569 34.0368L13.5941 34.0848C13.9855 34.1398 14.1703 34.2428 14.1703 34.4282C14.1703 34.682 13.9103 34.8268 13.4221 34.8268C12.9277 34.8268 12.5709 34.6688 12.3303 34.4834L11.9949 35.04C12.3863 35.3284 12.8807 35.466 13.4161 35.466C14.3641 35.466 14.9135 35.0196 14.9135 34.3946C14.9135 33.8176 14.4811 33.5158 13.7667 33.4128L13.4303 33.364C13.1213 33.324 12.8737 33.2618 12.8737 33.0418C12.8737 32.8018 13.1071 32.6574 13.4987 32.6574C13.9177 32.6574 14.3233 32.8154 14.5221 32.9388L14.8311 32.3618L14.8299 32.361ZM24.0401 32.0182C23.6283 32.0182 23.3601 32.2108 23.1755 32.4992V32.1H22.4681V35.3824H23.1819V33.5424C23.1819 32.9992 23.4153 32.6974 23.8819 32.6974C24.0347 32.6952 24.1864 32.7233 24.3283 32.78L24.5483 32.1072C24.3903 32.045 24.1843 32.0176 24.0397 32.0176M17.9489 32.1H16.7817V31.1042H16.0601V32.1H15.3943V32.7524H16.0601V34.2498C16.0601 35.0114 16.3557 35.465 17.2001 35.465C17.5099 35.465 17.8667 35.369 18.0931 35.2112L17.8869 34.6C17.6739 34.7234 17.4405 34.7856 17.2549 34.7856C16.8981 34.7856 16.7817 34.5656 16.7817 34.2362V32.753H17.9489V32.1ZM7.27709 35.3832V33.3232C7.27709 32.5474 6.78269 32.0254 5.98569 32.0184C5.56669 32.0114 5.13449 32.1418 4.83189 32.6024C4.60549 32.2384 4.24869 32.0184 3.74709 32.0184C3.39649 32.0184 3.05389 32.1214 2.78569 32.5058V32.1H2.07129V35.3824H2.79129V33.5624C2.79129 32.9926 3.10729 32.6898 3.59529 32.6898C4.06929 32.6898 4.30909 32.9988 4.30909 33.5552V35.382H5.03069V33.562C5.03069 32.9922 5.36009 32.6894 5.83389 32.6894C6.32129 32.6894 6.55389 32.9984 6.55389 33.5548V35.3816L7.27709 35.3832Z" fill="#231F20"/>
<path d="M39.6189 24.4644V23.9844H39.4939L39.3493 24.3138L39.2055 23.9844H39.0801V24.4644H39.1689V24.1028L39.3041 24.4148H39.3961L39.5314 24.102V24.4644H39.6193H39.6189ZM38.8259 24.4644V24.0666H38.9859V23.9856H38.5771V24.0666H38.7371V24.4644H38.8251H38.8259Z" fill="#F79410"/>
<path d="M25.4109 26.523H14.5938V7.08299H25.4111L25.4109 26.523Z" fill="#FF5F00"/>
<path d="M15.28 16.8034C15.28 12.86 17.1264 9.3472 20.0016 7.0834C17.8252 5.36729 15.1334 4.43591 12.3618 4.44C5.5344 4.44 0 9.9752 0 16.8034C0 23.6316 5.5344 29.1668 12.3618 29.1668C15.1334 29.1709 17.8254 28.2396 20.0018 26.5234C17.1268 24.26 15.28 20.747 15.28 16.8034Z" fill="#EB001B"/>
<path d="M40.0048 16.8034C40.0048 23.6316 34.4704 29.1668 27.643 29.1668C24.871 29.1709 22.1788 28.2395 20.002 26.5234C22.878 24.2596 24.7244 20.747 24.7244 16.8034C24.7244 12.8598 22.878 9.3472 20.002 7.0834C22.1787 5.36735 24.8709 4.43598 27.6428 4.44C34.4702 4.44 40.0046 9.9752 40.0046 16.8034" fill="#F79E1B"/>
</g>
<defs>
<clipPath id="clip0_155_30">
<rect width="40" height="40" fill="white"/>
</clipPath>
</defs>
</svg>
