<svg width="40" height="40" viewBox="0 0 40 40" fill="none" xmlns="http://www.w3.org/2000/svg">
<path fill-rule="evenodd" clip-rule="evenodd" d="M0 0H40V40H0V0Z" fill="#CFE2F0"/>
<path fill-rule="evenodd" clip-rule="evenodd" d="M39.4127 10.5437C39.4127 8.67895 38.4436 7.75385 36.5637 7.75385H3.43765C2.49802 7.75385 1.80782 8.00349 1.35253 8.5173C0.838717 9.03131 0.588867 9.69205 0.588867 10.5437V29.4563C0.588867 30.308 0.838717 30.954 1.35253 31.4825C1.88128 31.9965 2.55674 32.2462 3.43765 32.2462H36.5637C38.4436 32.2462 39.4127 31.3067 39.4127 29.4565V10.5437ZM36.5637 8.1944C38.12 8.1944 38.9132 8.98732 38.9132 10.5437V29.4563C38.9132 31.0272 38.12 31.8054 36.5637 31.8054H3.43765C2.68872 31.8054 2.11619 31.5852 1.69036 31.1447C1.24981 30.7186 1.02963 30.1314 1.02963 29.4561V10.5437C1.02963 8.98732 1.80782 8.1944 3.43765 8.1944H36.5637Z" fill="#315881"/>
<path fill-rule="evenodd" clip-rule="evenodd" d="M3.70171 9.28096C3.07044 9.28096 2.67388 9.38368 2.45371 9.60406C2.26279 9.8537 2.1748 10.2648 2.1748 10.8668V14.9634H37.8265V10.8668C37.8265 9.79498 37.2976 9.28096 36.2405 9.28096H3.70171Z" fill="#315881"/>
<path fill-rule="evenodd" clip-rule="evenodd" d="M2.1748 29.0745C2.1748 30.1606 2.68861 30.7188 3.70171 30.7188H36.2405C37.2976 30.7188 37.8265 30.1608 37.8265 29.0745V24.9777H2.1748V29.0745Z" fill="#DFA43B"/>
<path fill-rule="evenodd" clip-rule="evenodd" d="M13.9795 16.7109C13.9795 16.9018 13.9501 17.0485 13.8768 17.1514L11.3071 21.63L11.1455 16.1676H7.03418L8.41437 16.8283C8.81073 17.078 9.01638 17.4009 9.01638 17.8122L9.398 23.6124H11.4097L16.2261 16.1676H13.7594C13.9061 16.2998 13.9795 16.5052 13.9795 16.7109ZM30.6016 16.3878L30.7628 16.1674H28.2519C28.3399 16.2554 28.3693 16.2996 28.3693 16.3288C28.3397 16.4461 28.2809 16.5198 28.2519 16.6077L24.5957 23.274C24.5077 23.3914 24.4193 23.4944 24.3168 23.612H26.3871L26.2842 23.3917C26.2842 23.2007 26.3871 22.8486 26.6073 22.3493L27.0479 21.5269H29.177C29.2654 22.2171 29.3241 22.7899 29.3534 23.2159L29.177 23.6122H31.7467L31.3648 23.0542L30.6016 16.3878ZM29.0743 20.4846H27.5472L28.8539 17.9736L29.0743 20.4846ZM22.7309 15.7858C21.9382 15.7858 21.2625 16.0061 20.6605 16.4465C19.9996 16.8283 19.6767 17.3129 19.6767 17.9151C19.6767 18.6053 19.9116 19.2073 20.3814 19.6624L21.806 20.646C22.32 21.0133 22.5697 21.3362 22.5697 21.63C22.5697 21.9089 22.4371 22.1586 22.1878 22.3495C21.9382 22.5404 21.6589 22.6284 21.3067 22.6284C20.7927 22.6284 19.9118 22.2615 18.6931 21.5861V22.9515C19.6474 23.5243 20.5727 23.8181 21.4682 23.8181C22.32 23.8181 23.0395 23.583 23.6564 23.0544C24.3172 22.5697 24.6401 21.9973 24.6401 21.3659C24.6401 20.8369 24.4049 20.3526 23.8764 19.8386L22.5105 18.8547C22.0559 18.4876 21.806 18.1645 21.806 17.9151C21.806 17.3426 22.1436 17.0487 22.8338 17.0487C23.3037 17.0487 23.9939 17.3131 24.9188 17.8711L25.1981 16.4467C24.4195 16.0059 23.612 15.7858 22.7309 15.7858ZM17.2687 23.6122C17.2392 23.3039 17.1805 23.025 17.151 22.7311L19.016 16.7109L19.4565 16.1676H16.7694C16.7989 16.2998 16.8281 16.476 16.8576 16.6082C16.8576 16.7403 16.8576 16.902 16.8281 17.0487L14.9634 23.0102L14.5815 23.6124L17.2687 23.6122Z" fill="#315881"/>
</svg>
