<svg width="77" height="77" viewBox="0 0 77 77" fill="none" xmlns="http://www.w3.org/2000/svg">
<g id="Facebook" clip-path="url(#clip0_38_294)">
<path id="Vector" d="M38.4004 8C30.3378 8 22.6055 11.2028 16.9044 16.904C11.2033 22.6051 8.00049 30.3374 8.00049 38.4C8.00049 46.4626 11.2033 54.195 16.9044 59.8961C22.6055 65.5972 30.3378 68.8 38.4004 68.8C46.463 68.8 54.1953 65.5972 59.8964 59.8961C65.5975 54.195 68.8003 46.4626 68.8003 38.4C68.8003 30.3374 65.5975 22.6051 59.8964 16.904C54.1953 11.2028 46.463 8 38.4004 8Z" fill="#F5F5F5"/>
<g id="Vector_2" filter="url(#filter0_d_38_294)">
<path d="M42.5155 46.4576H50.3827L51.6179 38.4656H42.5139V34.0976C42.5139 30.7776 43.5987 27.8336 46.7043 27.8336H51.6947V20.8592C50.8179 20.7408 48.9635 20.4816 45.4595 20.4816C38.1427 20.4816 33.8531 24.3456 33.8531 33.1488V38.4656H26.3315V46.4576H33.8531V68.424C35.3427 68.648 36.8515 68.8 38.4003 68.8C39.8003 68.8 41.1667 68.672 42.5155 68.4896V46.4576Z" fill="#06279B"/>
</g>
</g>
<defs>
<filter id="filter0_d_38_294" x="18.3316" y="20.4816" width="41.3633" height="64.3184" filterUnits="userSpaceOnUse" color-interpolation-filters="sRGB">
<feFlood flood-opacity="0" result="BackgroundImageFix"/>
<feColorMatrix in="SourceAlpha" type="matrix" values="0 0 0 0 0 0 0 0 0 0 0 0 0 0 0 0 0 0 127 0" result="hardAlpha"/>
<feOffset dy="7.99999"/>
<feGaussianBlur stdDeviation="4"/>
<feComposite in2="hardAlpha" operator="out"/>
<feColorMatrix type="matrix" values="0 0 0 0 0 0 0 0 0 0 0 0 0 0 0 0 0 0 0.25 0"/>
<feBlend mode="normal" in2="BackgroundImageFix" result="effect1_dropShadow_38_294"/>
<feBlend mode="normal" in="SourceGraphic" in2="effect1_dropShadow_38_294" result="shape"/>
</filter>
<clipPath id="clip0_38_294">
<rect width="76.7998" height="76.8" fill="white"/>
</clipPath>
</defs>
</svg>
