<svg width="60" height="62" viewBox="0 0 60 62" fill="none" xmlns="http://www.w3.org/2000/svg">
<g id="icons8-google 1">
<path id="Vector" d="M54.5137 25.9405H52.5V25.8333H30V36.1667H44.1287C42.0675 42.1819 36.5287 46.5 30 46.5C21.7162 46.5 15 39.5599 15 31C15 22.4401 21.7162 15.5 30 15.5C33.8237 15.5 37.3025 16.9906 39.9512 19.4254L47.0225 12.1184C42.5575 7.81845 36.585 5.16666 30 5.16666C16.1937 5.16666 5 16.7335 5 31C5 45.2664 16.1937 56.8333 30 56.8333C43.8062 56.8333 55 45.2664 55 31C55 29.2679 54.8275 27.5771 54.5137 25.9405Z" fill="#FFC107"/>
<path id="Vector_2" d="M7.88232 18.9759L16.0961 25.2004C18.3186 19.5145 23.7011 15.5 29.9998 15.5C33.8236 15.5 37.3023 16.9906 39.9511 19.4254L47.0223 12.1184C42.5573 7.81845 36.5848 5.16666 29.9998 5.16666C20.3973 5.16666 12.0698 10.7686 7.88232 18.9759Z" fill="#FF3D00"/>
<path id="Vector_3" d="M29.9999 56.8333C36.4574 56.8333 42.3249 54.2797 46.7612 50.127L39.0236 43.3613C36.5136 45.3259 33.3937 46.5 29.9999 46.5C23.4974 46.5 17.9762 42.2155 15.8962 36.2364L7.74365 42.727C11.8812 51.0932 20.2837 56.8333 29.9999 56.8333Z" fill="#4CAF50"/>
<path id="Vector_4" d="M54.5137 25.9406H52.5V25.8333H30V36.1667H44.1288C43.1388 39.0561 41.34 41.5478 39.02 43.3626L39.0237 43.36L46.7612 50.1257C46.2137 50.6398 55 43.9167 55 31C55 29.2679 54.8275 27.5771 54.5137 25.9406Z" fill="#1976D2"/>
</g>
</svg>
