<svg width="59" height="58" viewBox="0 0 59 58" fill="none" xmlns="http://www.w3.org/2000/svg">
<g id="icons8-instagram (1) 1">
<path id="Vector" d="M41.8126 50.7379L17.2293 50.7609C11.821 50.7657 7.3923 46.4205 7.38615 41.1039L7.3628 16.9372C7.35788 11.6205 11.778 7.26692 17.1863 7.26088L41.7696 7.23792C47.178 7.23309 51.6067 11.5783 51.6128 16.8949L51.6361 41.0616C51.6423 46.3795 47.221 50.7331 41.8126 50.7379Z" fill="url(#paint0_radial_38_306)"/>
<path id="Vector_2" d="M41.8126 50.7379L17.2293 50.7609C11.821 50.7657 7.3923 46.4205 7.38615 41.1039L7.3628 16.9372C7.35788 11.6205 11.778 7.26692 17.1863 7.26088L41.7696 7.23792C47.178 7.23309 51.6067 11.5783 51.6128 16.8949L51.6361 41.0616C51.6423 46.3795 47.221 50.7331 41.8126 50.7379Z" fill="url(#paint1_radial_38_306)"/>
<path id="Vector_3" d="M29.5002 37.4584C24.7568 37.4584 20.896 33.6642 20.896 29C20.896 24.3359 24.7568 20.5417 29.5002 20.5417C34.2435 20.5417 38.1043 24.3359 38.1043 29C38.1043 33.6642 34.2435 37.4584 29.5002 37.4584ZM29.5002 22.9584C26.1114 22.9584 23.3543 25.6686 23.3543 29C23.3543 32.3314 26.1114 35.0417 29.5002 35.0417C32.889 35.0417 35.646 32.3314 35.646 29C35.646 25.6686 32.889 22.9584 29.5002 22.9584Z" fill="white"/>
<path id="Vector_4" d="M38.7188 21.75C39.737 21.75 40.5625 20.9385 40.5625 19.9375C40.5625 18.9365 39.737 18.125 38.7188 18.125C37.7005 18.125 36.875 18.9365 36.875 19.9375C36.875 20.9385 37.7005 21.75 38.7188 21.75Z" fill="white"/>
<path id="Vector_5" d="M36.8752 44.7083H22.1252C17.3818 44.7083 13.521 40.9142 13.521 36.25V21.75C13.521 17.0858 17.3818 13.2917 22.1252 13.2917H36.8752C41.6185 13.2917 45.4793 17.0858 45.4793 21.75V36.25C45.4793 40.9142 41.6185 44.7083 36.8752 44.7083ZM22.1252 15.7083C18.7364 15.7083 15.9793 18.4186 15.9793 21.75V36.25C15.9793 39.5814 18.7364 42.2917 22.1252 42.2917H36.8752C40.264 42.2917 43.021 39.5814 43.021 36.25V21.75C43.021 18.4186 40.264 15.7083 36.8752 15.7083H22.1252Z" fill="white"/>
</g>
<defs>
<radialGradient id="paint0_radial_38_306" cx="0" cy="0" r="1" gradientUnits="userSpaceOnUse" gradientTransform="translate(23.8213 50.7923) scale(55.1884 54.253)">
<stop stop-color="#FFDD55"/>
<stop offset="0.328" stop-color="#FF543F"/>
<stop offset="0.348" stop-color="#FC5245"/>
<stop offset="0.504" stop-color="#E64771"/>
<stop offset="0.643" stop-color="#D53E91"/>
<stop offset="0.761" stop-color="#CC39A4"/>
<stop offset="0.841" stop-color="#C837AB"/>
</radialGradient>
<radialGradient id="paint1_radial_38_306" cx="0" cy="0" r="1" gradientUnits="userSpaceOnUse" gradientTransform="translate(14.487 6.69453) scale(36.6451 24.0028)">
<stop stop-color="#4168C9"/>
<stop offset="0.999" stop-color="#4168C9" stop-opacity="0"/>
</radialGradient>
</defs>
</svg>
