<svg width="29" height="32" viewBox="0 0 29 32" fill="none" xmlns="http://www.w3.org/2000/svg">
<path d="M19.8558 14.7563H18.7986V10.8584C18.7986 9.62814 17.9078 8.63104 16.8086 8.63104H12.9529C11.8537 8.63104 10.9629 9.62814 10.9629 10.8584V14.7563H9.90571C9.63053 14.7563 9.4082 15.0051 9.4082 15.3131V21.9953C9.4082 22.3033 9.63053 22.5521 9.90571 22.5521H19.8558C20.131 22.5521 20.3533 22.3033 20.3533 21.9953V15.3131C20.3533 15.0051 20.131 14.7563 19.8558 14.7563ZM15.3161 18.8804V19.8027C15.3161 19.8793 15.2601 19.9419 15.1917 19.9419H14.5698C14.5014 19.9419 14.4454 19.8793 14.4454 19.8027V18.8804C14.3171 18.7773 14.2213 18.6312 14.1719 18.4633C14.1224 18.2954 14.1218 18.1142 14.1702 17.9459C14.2186 17.7775 14.3135 17.6307 14.4412 17.5266C14.5689 17.4224 14.7228 17.3663 14.8807 17.3663C15.0387 17.3663 15.1926 17.4224 15.3203 17.5266C15.448 17.6307 15.5429 17.7775 15.5913 17.9459C15.6397 18.1142 15.6391 18.2954 15.5896 18.4633C15.5402 18.6312 15.4444 18.7773 15.3161 18.8804ZM17.6792 14.7563H12.0823V10.8584C12.0823 10.3207 12.4725 9.88394 12.9529 9.88394H16.8086C17.289 9.88394 17.6792 10.3207 17.6792 10.8584V14.7563Z" fill="#1660CF"/>
<path d="M28.3104 15.5916C28.3104 23.9809 22.2461 30.6832 14.8803 30.6832C7.51455 30.6832 1.4502 23.9809 1.4502 15.5916C1.4502 7.20226 7.51455 0.5 14.8803 0.5C22.2461 0.5 28.3104 7.20226 28.3104 15.5916Z" stroke="#1660CF"/>
</svg>
